<svg width="107" height="32" viewBox="0 0 107 32" fill="none" xmlns="http://www.w3.org/2000/svg">
<g clip-path="url(#clip0_3003_119844)">
<path d="M16.6086 17.7406C16.1223 16.4469 15.157 15.3891 13.9113 14.7847C12.6655 14.1803 11.2341 14.0753 9.91138 14.4912L4.00737 16.3437C0.664997 17.3205 0.371125 22.145 3.57321 23.5046C5.29037 24.2816 7.09089 24.0831 8.90613 25.0047C10.8198 25.8923 11.8562 27.3396 13.4867 28.3145C16.5239 29.8749 20.0532 26.6762 18.7784 23.5103L16.6086 17.7406Z" fill="#FA5A5F"/>
<path d="M26.3021 15.5236C24.8748 14.4482 22.8106 15.6155 21.758 16.9726C18.5297 21.1881 22.6314 24.2804 25.911 20.2633C27.2953 18.5313 27.4668 16.4457 26.3021 15.5236Z" fill="#FA5A5F"/>
<path d="M18.3684 14.7996C19.9388 15.5616 22.0875 14.3995 23.1569 12.2137C25.5745 6.87502 20.1938 4.26443 17.4662 9.45269C16.3968 11.6385 16.8021 14.0397 18.3684 14.7996Z" fill="#FA5A5F"/>
<path d="M7.34352 9.97277C7.77208 8.31296 7.41875 5.97273 5.68872 5.51621C2.40184 4.83482 0.596795 11.6596 3.44845 13.0636C5.09461 13.796 6.76071 12.2824 7.34352 9.97277Z" fill="#FA5A5F"/>
<path d="M11.1467 11.2938C12.713 12.0537 14.8616 10.8916 15.931 8.70582C18.3528 3.36921 12.9721 0.758626 10.2404 5.94486C9.17099 8.13066 9.5763 10.5319 11.1467 11.2938Z" fill="#FA5A5F"/>
</g>
<path d="M37.1378 23V9.90909H39.9055V20.718H45.5178V23H37.1378ZM47.2995 23V13.1818H50.0225V23H47.2995ZM48.6674 11.9162C48.2626 11.9162 47.9153 11.782 47.6255 11.5135C47.34 11.2408 47.1973 10.9148 47.1973 10.5355C47.1973 10.1605 47.34 9.83878 47.6255 9.57031C47.9153 9.29758 48.2626 9.16122 48.6674 9.16122C49.0723 9.16122 49.4174 9.29758 49.7029 9.57031C49.9927 9.83878 50.1376 10.1605 50.1376 10.5355C50.1376 10.9148 49.9927 11.2408 49.7029 11.5135C49.4174 11.782 49.0723 11.9162 48.6674 11.9162ZM54.9268 17.3239V23H52.2038V13.1818H54.799V14.9141H54.9141C55.1314 14.343 55.4957 13.8913 56.0071 13.5589C56.5185 13.2223 57.1385 13.054 57.8672 13.054C58.549 13.054 59.1435 13.2031 59.6506 13.5014C60.1577 13.7997 60.5518 14.2259 60.8331 14.7798C61.1143 15.3295 61.255 15.9858 61.255 16.7486V23H58.532V17.2344C58.5362 16.6335 58.3828 16.1648 58.0717 15.8281C57.7607 15.4872 57.3324 15.3168 56.7869 15.3168C56.4205 15.3168 56.0966 15.3956 55.8153 15.5533C55.5384 15.7109 55.321 15.9411 55.1634 16.2436C55.0099 16.5419 54.9311 16.902 54.9268 17.3239ZM65.8684 20.1747L65.8748 16.9084H66.2711L69.416 13.1818H72.5417L68.3166 18.1165H67.671L65.8684 20.1747ZM63.4011 23V9.90909H66.1241V23H63.4011ZM69.5375 23L66.6483 18.7237L68.4636 16.7997L72.7271 23H69.5375ZM83.1893 13.1818L79.7567 23H76.6886L73.256 13.1818H76.1325L78.1715 20.2067H78.2738L80.3065 13.1818H83.1893ZM84.5827 23V13.1818H87.3058V23H84.5827ZM85.9506 11.9162C85.5458 11.9162 85.1985 11.782 84.9087 11.5135C84.6232 11.2408 84.4805 10.9148 84.4805 10.5355C84.4805 10.1605 84.6232 9.83878 84.9087 9.57031C85.1985 9.29758 85.5458 9.16122 85.9506 9.16122C86.3555 9.16122 86.7006 9.29758 86.9862 9.57031C87.2759 9.83878 87.4208 10.1605 87.4208 10.5355C87.4208 10.9148 87.2759 11.2408 86.9862 11.5135C86.7006 11.782 86.3555 11.9162 85.9506 11.9162ZM94.7093 13.1818V15.2273H88.7967V13.1818H94.7093ZM90.139 10.8295H92.862V19.983C92.862 20.2344 92.9004 20.4304 92.9771 20.571C93.0538 20.7074 93.1603 20.8033 93.2967 20.8587C93.4373 20.9141 93.5993 20.9418 93.7825 20.9418C93.9103 20.9418 94.0382 20.9311 94.166 20.9098C94.2939 20.8842 94.3919 20.8651 94.4601 20.8523L94.8883 22.8786C94.752 22.9212 94.5602 22.9702 94.313 23.0256C94.0659 23.0852 93.7654 23.1214 93.4118 23.1342C92.7555 23.1598 92.1802 23.0724 91.6859 22.8722C91.1958 22.6719 90.8145 22.3608 90.5417 21.9389C90.269 21.517 90.1348 20.9844 90.139 20.3409V10.8295ZM100.852 23.1918C99.8422 23.1918 98.9728 22.9872 98.2441 22.5781C97.5197 22.1648 96.9615 21.581 96.5694 20.8267C96.1774 20.0682 95.9814 19.1712 95.9814 18.1357C95.9814 17.1257 96.1774 16.2393 96.5694 15.4766C96.9615 14.7138 97.5133 14.1193 98.225 13.6932C98.9409 13.267 99.7804 13.054 100.743 13.054C101.391 13.054 101.994 13.1584 102.552 13.3672C103.115 13.5717 103.605 13.8807 104.023 14.294C104.444 14.7074 104.773 15.2273 105.007 15.8537C105.241 16.4759 105.358 17.2045 105.358 18.0398V18.7876H97.068V17.1001H102.795C102.795 16.7081 102.71 16.3608 102.54 16.0582C102.369 15.7557 102.133 15.5192 101.83 15.3487C101.532 15.174 101.184 15.0866 100.788 15.0866C100.375 15.0866 100.008 15.1825 99.6887 15.3743C99.3734 15.5618 99.1262 15.8153 98.9473 16.1349C98.7683 16.4503 98.6767 16.8018 98.6724 17.1896V18.794C98.6724 19.2798 98.7619 19.6996 98.9409 20.0533C99.1241 20.407 99.3819 20.6797 99.7143 20.8714C100.047 21.0632 100.441 21.1591 100.897 21.1591C101.199 21.1591 101.476 21.1165 101.728 21.0312C101.979 20.946 102.194 20.8182 102.373 20.6477C102.552 20.4773 102.689 20.2685 102.782 20.0213L105.301 20.1875C105.173 20.7926 104.911 21.321 104.515 21.7727C104.123 22.2202 103.616 22.5696 102.993 22.821C102.376 23.0682 101.662 23.1918 100.852 23.1918Z" fill="#121212"/>
<defs>
<clipPath id="clip0_3003_119844">
<rect width="28" height="28" fill="white" transform="translate(0 2)"/>
</clipPath>
</defs>
</svg>
